# xmcd
#
# Track frame offsets:
#	150
#	18802
#	36947
#	51274
#	65839
#	81645
#	99279
#	115420
#	135470
#	149515
#	166436
#	179543
#	196527
#	209282
#	221769
#
# Disc length: 3170 seconds
#
# Revision: 2
# Processed by: cddbd v1.5.2PL0 Copyright (c) Steve Scherf et al.
# Submitted via: audiograbber 1.82.02
#
DISCID=e00c600f
DTITLE=Various Artist - A Decade of Country Music CD 2
DYEAR=1999
DGENRE=Country
TTITLE0=Lee Kernaghan - 1959
TTITLE1=Slim Dusty - Star Trucker
TTITLE2=Terri Clarke - Poor Poor Pitiful Me
TTITLE3=Marty Stuart - Tempted
TTITLE4=Toby Keith - Should've Been A Cowboy
TTITLE5=Dolly Parton - Yellow Roses
TTITLE6=Nitty Gritty Dirt Band - And So It Goes
TTITLE7=Graeme Connors - Love Works
TTITLE8=George Strait - Love Without End, Amen
TTITLE9=Lee Ann Womack - Never Again, Again
TTITLE10=Sammy Kershaw - She Don't Know She's Beautiful
TTITLE11=Kentucky Headhunters - Walk Softly On This Heart Of Mine
TTITLE12=Anne Kirkpatrick - I Guess We've Been Together For Too Long
TTITLE13=Randy Travis - Out Of My Bones
TTITLE14=Tracy Byrd - I'm FromThe Country
EXTD=
EXTT0=
EXTT1=
EXTT2=
EXTT3=
EXTT4=
EXTT5=
EXTT6=
EXTT7=
EXTT8=
EXTT9=
EXTT10=
EXTT11=
EXTT12=
EXTT13=
EXTT14=
PLAYORDER=
